<?xml version="1.0" encoding="UTF-8" standalone="no"?>
<!-- Created with Inkscape (http://www.inkscape.org/) -->

<svg
   width="71.772743mm"
   height="52.478558mm"
   viewBox="0 0 71.772743 52.478558"
   version="1.1"
   id="svg1"
   xmlns:xlink="http://www.w3.org/1999/xlink"
   xmlns="http://www.w3.org/2000/svg"
   xmlns:svg="http://www.w3.org/2000/svg">
  <defs
     id="defs1">
    <color-profile
       name="Agfa-:-Swop-Standard"
       xlink:href="../../../../../WINDOWS/system32/spool/drivers/color/RSWOP.icm"
       id="color-profile2" />
    <color-profile
       name="sRGB-IEC61966-2.1"
       xlink:href="../../../../../WINDOWS/system32/spool/drivers/color/sRGB%20Color%20Space%20Profile.icm"
       id="color-profile4" />
    <style
       id="style29"><![CDATA[
.class1 {
  -inkscape-font-specification:"Pocket _ Font, Normal";
  display:inline;
  fill:#0067b9;
  fill-opacity:1;
  font-family:"Pocket _ Font";
  font-size:50.8px;
  inline-size:29.537;
  stroke:#000000;
  stroke-opacity:1;
  stroke-width:0.516267;
  white-space:pre;
}
]]></style>
  </defs>
  <path
     d="m 25.266012,0.90243068 c -0.2682,-0.009 -0.550414,0.006 -0.847889,0.0575 C 19.14663,1.8679507 16.619417,4.0110407 13.022527,6.4988607 c -1.09036,1.04759 -2.174995,2.27538 -3.2535812,3.6833103 -1.078579,1.40793 -1.899576,2.66346 -2.463304,3.76667 -0.817448,1.65567 -1.379754,3.23874 -1.686493,4.74958 -0.330956,1.63011 -0.380018,3.12851 -0.147917,4.49535 0.244116,1.44717 0.994691,2.62928 2.252371,3.54657 0.478203,0.29417 0.693422,0.56063 0.644974,0.79918 -0.04036,0.19879 -0.59969,0.72203 -1.677835,1.57002 -1.416071,1.11792 -2.506759,2.16594 -3.271408,3.1432 -1.231511,1.60337 -2.012438,3.21993 -2.343388,4.85005 -0.36324003,1.78913 -0.17200203,3.49448 0.574535,5.11659 1.107802,2.35275 3.197428,3.91496 6.268448,4.68606 0.510498,0.13522 1.019127,0.21054 1.525694,0.22544 0.6472832,0.0192 1.7488252,-0.10813 3.3049532,-0.38195 2.440765,-0.44755 5.735137,-1.01187 8.314859,-2.0868 0.980742,-0.40866 1.879445,-0.97233 2.674643,-1.63833 0.560813,-0.46968 0.990475,-1.07609 1.454454,-1.64247 1.93998,-2.36814 2.43662,-8.17584 0.54014,-9.84644 -0.28121,-0.28832 -0.74169,-0.46194 -1.380897,-0.52087 l -0.126255,-0.004 c -1.350846,-0.0401 -3.667725,0.91113 -6.949937,2.85366 -2.188137,1.29499 -3.800572,2.12719 -4.83813,2.49634 -0.824421,0.29552 -1.532597,0.43472 -2.123582,0.41717 -0.168929,-0.006 -0.4700712,-0.0539 -0.9042162,-0.14686 -1.241982,-0.43683 -1.741873,-1.25173 -1.499716,-2.44451 0.08073,-0.39758 0.221678,-0.81335 0.42304,-1.24737 0.245645,-0.51267 0.71268,-1.1387 1.400756,-1.87824 0.6880732,-0.73955 1.3817902,-1.29919 2.0816602,-1.67847 0.892972,-0.49375 1.59505,-0.81243 2.105759,-0.95727 0.538859,-0.14403 1.417112,-0.21807 2.635243,-0.22171 1.443343,0.003 2.32204,-0.0709 2.635761,-0.22167 0.904922,-0.41311 1.474593,-1.1964 1.708684,-2.3494 0.258307,-1.27227 -0.04272,-2.02136 -0.902921,-2.24686 l -0.210897,-0.006 c -0.309563,-0.009 -0.756237,0.0976 -1.339415,0.32048 -0.768135,0.2972 -1.503795,0.43488 -2.207332,0.41404 -2.460396,-0.153 -3.901147,-1.3557 -4.321534,-3.60806 -0.07195,-0.48212 -0.03892,-1.0608 0.09828,-1.73668 0.145296,-0.71567 0.394723,-1.38824 0.749014,-2.0177 0.921948,-1.61256 2.169396,-2.87579 3.742106,-3.78907 2.143855,-1.21634 4.341706,-1.79126 6.593099,-1.72437 1.296665,-0.21811 2.30936,-0.37949 2.98789,-0.82106 1.55794,-1.0138803 2.38612,-1.7725603 3.98606,-3.2631403 0.27945,-0.26034 0.47914,-0.59032 0.53662,-1.13692 -0.16928,-1.44827 -0.35668,-2.01949 -0.75771,-2.98694 -0.53218,-0.85237 -0.83466,-1.24691 -2.18367,-1.69358 -0.60294,-0.16788 -1.60061,-0.40566002 -2.40545,-0.43325002 z"
     style="font-size:192px;font-family:'Pocket _ Font';-inkscape-font-specification:'Pocket _ Font, Normal';white-space:pre;shape-padding:1.31289;display:inline;fill:#0067b9;fill-opacity:1;stroke:#0067b9;stroke-width:1.8;stroke-linecap:round;stroke-dasharray:none;stroke-dashoffset:0;stroke-opacity:0.579186;paint-order:stroke fill markers"
     id="E-6" />
  <g
     id="layer1"
     transform="translate(-75.037648,-103.44838)"><path
   d="m 121.43433,110.51046 c 0.12167,6.91147 -0.35622,10.34557 -0.68984,15.31931 -0.0848,1.26464 -0.4134,2.81912 -0.71479,4.25803 -0.2857,1.36403 -0.54696,2.62421 -0.55298,3.43518 -0.0269,3.63049 1.23319,6.84943 3.78039,9.65682 1.09164,1.20316 2.33305,2.00136 3.72423,2.39457 1.61083,0.4553 3.07917,0.33356 4.40507,-0.36521 2.0625,-1.08699 3.10612,-3.29695 3.13087,-6.62985 0.0154,-2.08306 -0.76719,-5.3758 -2.34801,-9.87818 -1.50844,-4.36267 -1.4127,-7.75705 -1.39105,-10.67335 0.0269,-3.63049 1.30473,-5.27447 3.36592,-6.18291 1.54554,-0.63669 2.67833,-0.47206 4.5088,0.0453 2.85554,0.80711 3.84095,1.55548 5.63836,4.27972 1.54029,2.33451 1.64297,4.09489 1.61648,7.66585 -0.01,1.30936 -0.15826,2.60352 -0.23773,3.41602 -2.33473,6.86012 -1.11925,14.01479 -2.6088,16.99332 -2.38188,4.57519 -4.51311,8.81344 -9.65788,9.98348 -1.69023,0.35723 -3.56482,0.82735 -4.51843,0.79642 -0.8804,-0.0103 -2.49326,-0.11058 -4.47019,-0.66935 -2.12335,-0.60017 -3.91729,-1.02009 -5.01337,-1.62805 -2.19215,-1.21602 -3.71179,-2.69162 -5.45712,-4.79523 -1.74577,-2.0441 -1.45685,-4.34623 -2.24767,-6.5379 -0.36034,-0.8772 -1.31187,-4.42611 -1.43269,-7.91944 -0.12295,-3.19571 -0.12631,-4.35862 -0.46088,-6.20919 -0.81498,-4.47785 -0.71243,-6.17687 -1.51383,-10.19708 -0.53626,-2.69015 -0.31612,-5.66853 0.42755,-8.32454 0.26534,-0.94772 0.87097,-2.13008 1.66278,-2.43975 1.18601,-0.46384 2.59714,-0.82425 4.89695,-0.71905 2.24111,0.10251 2.8929,0.0433 3.99172,0.41545 0.63045,0.21355 1.30239,0.37513 1.61859,0.89662 0.81263,1.34016 0.21727,2.2215 0.5476,3.61299 z"
   id="text2-2"
   aria-label="u"
   onclick="()=&gt;{console.log(this)}"
   class="class1"
   style="font-size:50.8px;font-family:'Pocket _ Font';-inkscape-font-specification:'Pocket _ Font, Normal';white-space:pre;inline-size:29.537;display:inline;fill:#bb1122;fill-opacity:1;stroke:#bb1122;stroke-width:1.8;stroke-dasharray:none;stroke-opacity:0.69697" />
<path
   id="path1"
   d="" />
³
       d=&quot;m 100.40245,104.94627 c -0.2682,-0.009 -0.550417,0.006 -0.847887,0.0575 -5.271497,0.90803 -7.79871,3.05112 -11.3956,5.53895 -1.09036,1.04758 -2.174995,2.27537 -3.253581,3.68331 -1.078579,1.40792 -1.899576,2.66345 -2.463304,3.76666 -0.817448,1.65568 -1.379755,3.23874 -1.686493,4.74959 -0.330956,1.6301 -0.380018,3.1285 -0.147917,4.49534 0.244116,1.44717 0.994691,2.62928 2.252371,3.54658 0.478203,0.29416 0.693422,0.56063 0.644974,0.79918 -0.04036,0.19878 -0.59969,0.72203 -1.677835,1.57002 -1.416071,1.11791 -2.506759,2.16593 -3.271408,3.1432 -1.231511,1.60337 -2.012438,3.21993 -2.343388,4.85004 -0.36324,1.78913 -0.172002,3.49449 0.574535,5.11659 1.107802,2.35275 3.197428,3.91497 6.268448,4.68606 0.510498,0.13522 1.019127,0.21055 1.525694,0.22545 0.647283,0.0192 1.748825,-0.10814 3.304952,-0.38196 2.440766,-0.44755 5.735133,-1.01186 8.314855,-2.0868 0.98074,-0.40866 1.879448,-0.97233 2.674657,-1.63832 0.56081,-0.46969 0.99046,-1.0761 1.454447,-1.64248 1.93998,-2.36813 2.43663,-8.17584 0.54014,-9.84643 -0.28121,-0.28833 -0.74169,-0.46195 -1.380887,-0.52087 l -0.12626,-0.004 c -1.35085,-0.0401 -3.667731,0.91112 -6.949944,2.85365 -2.188137,1.295 -3.800572,2.12719 -4.83813,2.49634 -0.824421,0.29553 -1.532597,0.43472 -2.123582,0.41717 -0.168929,-0.006 -0.470072,-0.0539 -0.904216,-0.14686 -1.241982,-0.43683 -1.741873,-1.25172 -1.499717,-2.4445 0.08073,-0.39759 0.221679,-0.81335 0.423041,-1.24737 0.245645,-0.51267 0.71268,-1.13871 1.400756,-1.87825 0.688073,-0.73954 1.38179,-1.29919 2.08166,-1.67846 0.892972,-0.49375 1.59505,-0.81243 2.105758,-0.95727 0.53886,-0.14404 1.417113,-0.21808 2.635244,-0.22171 1.443343,0.003 2.32204,-0.0709 2.635761,-0.22168 0.904925,-0.41311 1.474593,-1.1964 1.708683,-2.3494 0.258309,-1.27227 -0.04272,-2.02135 -0.902919,-2.24686 l -0.210896,-0.006 c -0.309565,-0.009 -0.756239,0.0976 -1.339417,0.32048 -0.768136,0.29719 -1.503795,0.43488 -2.207332,0.41403 -2.460397,-0.15299 -3.901148,-1.35569 -4.321534,-3.60806 -0.07195,-0.48212 -0.03892,-1.06079 0.09828,-1.73668 0.145297,-0.71566 0.394723,-1.38824 0.749015,-2.01769 0.921948,-1.61256 2.169396,-2.8758 3.742106,-3.78908 2.143855,-1.21633 4.341704,-1.79126 6.593103,-1.72436 1.296662,-0.21812 2.309367,-0.3795 2.987887,-0.82107 1.55795,-1.01387 2.38613,-1.77256 3.98607,-3.26313 0.27944,-0.26034 0.47914,-0.59033 0.53661,-1.13692 -0.16927,-1.44827 -0.35668,-2.01949 -0.75771,-2.98694 -0.53218,-0.85238 -0.83466,-1.24691 -2.18368,-1.69359 -0.60292,-0.16788 -1.6006,-0.40566 -2.40544,-0.43325 z&quot;
       style=&quot;font-size:192px;font-family:'Pocket _ Font';-inkscape-font-specification:'Pocket _ Font, Normal';white-space:pre;shape-padding:1.31289;display:inline;fill:#000000;fill-opacity:1;stroke:none;stroke-width:0.9;stroke-linecap:round;stroke-dasharray:none;stroke-dashoffset:0;stroke-opacity:1;paint-order:stroke fill markers&quot;
       id=&quot;E&quot; /&gt;
    <path
   d="m 121.05683,112.45808 c 0.13415,4.67573 -0.7483,9.42172 -1.38458,14.36405 -0.33186,2.57772 -1.2554,6.02675 -1.26777,7.69321 -0.0269,3.63049 1.23319,6.84943 3.78039,9.65682 1.09164,1.20316 2.33305,2.00136 3.72423,2.39457 1.61083,0.4553 3.07917,0.33356 4.40507,-0.36521 2.0625,-1.08699 3.10612,-3.29695 3.13087,-6.62985 0.0154,-2.08306 -0.76719,-5.3758 -2.34801,-9.87818 -1.50844,-4.36267 -1.4127,-7.75705 -1.39105,-10.67335 0.0269,-3.63049 1.30473,-5.27447 3.36592,-6.18291 1.54554,-0.63669 2.67833,-0.47206 4.5088,0.0453 2.85554,0.80711 3.84095,1.55548 5.63836,4.27972 1.54029,2.33451 1.64297,4.09489 1.61648,7.66585 -0.01,1.30936 -0.15826,2.60352 -0.23773,3.41602 -1.43906,17.30963 -1.10846,14.14071 -2.6088,16.99332 -2.38188,4.57519 -4.94296,8.38359 -10.08773,9.55363 -1.69023,0.35723 -3.01216,0.52032 -3.96577,0.48939 -0.8804,-0.0103 -2.30904,-0.2948 -4.28597,-0.85357 -2.12335,-0.60017 -3.73307,-1.20431 -4.82915,-1.81227 -2.19215,-1.21602 -3.89215,-2.58556 -5.21149,-4.97945 -1.137,-2.06305 -1.54835,-2.98114 -1.98714,-5.26943 -0.20829,-1.08625 -1.25756,-4.94207 -1.56386,-7.46635 -0.23722,-1.95498 -0.0233,-3.94359 -0.20691,-5.90433 -0.34702,-3.70613 -1.44743,-7.49243 -1.68751,-11.03879 -0.1817,-2.68405 -0.6831,-5.6448 -0.21508,-8.34997 0.21679,-1.25309 0.56702,-1.99982 1.35883,-2.30949 1.18601,-0.46384 2.59714,-0.82425 4.89695,-0.71905 2.24111,0.10251 2.8929,0.0433 3.99172,0.41545 0.63045,0.21355 1.30239,0.37513 1.61859,0.89662 0.81263,1.34016 0.91201,3.17676 1.24234,4.56825 z"
   id="text2"
   aria-label="u"
   onclick=""
   class="class1"
   style="fill:#bb1122;fill-opacity:1;stroke:none;stroke-width:0.516;stroke-dasharray:none" />
</g>
</svg>
